<?xml version="1.0" encoding="UTF-8"?>
<svg width="392px" height="392px" viewBox="0 0 392 392" version="1.1" xmlns="http://www.w3.org/2000/svg" xmlns:xlink="http://www.w3.org/1999/xlink">
    <!-- Generator: Sketch 47.1 (45422) - http://www.bohemiancoding.com/sketch -->
    <title>Stewie</title>
    <desc>Created with Sketch.</desc>
    <defs>
        <circle id="path-1" cx="195.600004" cy="195.600004" r="180.600004"></circle>
        <filter x="-13.4%" y="-2.4%" width="117.9%" height="105.2%" filterUnits="objectBoundingBox" id="filter-3">
            <feOffset dx="-20" dy="2" in="SourceAlpha" result="shadowOffsetOuter1"></feOffset>
            <feColorMatrix values="0 0 0 0 0   0 0 0 0 0   0 0 0 0 0  0 0 0 0.184810915 0" type="matrix" in="shadowOffsetOuter1" result="shadowMatrixOuter1"></feColorMatrix>
            <feMerge>
                <feMergeNode in="shadowMatrixOuter1"></feMergeNode>
                <feMergeNode in="SourceGraphic"></feMergeNode>
            </feMerge>
        </filter>
        <polygon id="path-4" points="0 2.84217094e-14 183 2.84217094e-14 183 86.5 183 202.414133 0 202.414133"></polygon>
    </defs>
    <g id="Page-1" stroke="none" stroke-width="1" fill="none" fill-rule="evenodd">
        <g id="Reading" transform="translate(-59.000000, -48.000000)">
            <g id="Stewie" transform="translate(59.000000, 48.000000)">
                <g id="Jevin">
                    <circle id="Oval-2" fill="#FFFFFF" cx="196" cy="196" r="196"></circle>
                    <mask id="mask-2" fill="white">
                        <use xlink:href="#path-1"></use>
                    </mask>
                    <use id="Mask" fill="#F0EDFF" xlink:href="#path-1"></use>
                    <g id="Kanye" filter="url(#filter-3)" mask="url(#mask-2)">
                        <g transform="translate(84.000000, 62.000000)">
                            <g id="Body" transform="translate(21.658850, 213.712888)">
                                <path d="M26.7322435,24.0485311 L89.0043387,0 L148.645892,18.5712072 L148.645892,18.5712072 C166.110977,24.0094913 178.008677,40.1753467 178.008677,58.4675343 L178.008677,206.212165 L0,206.212165 L0,63.0285143 L7.10542736e-15,63.0285143 C4.99059866e-15,45.7596274 10.6228893,30.2697175 26.7322435,24.0485311 Z" id="body" fill="#434343"></path>
                                <g id="Arms" transform="translate(0.000000, 106.797796)" fill="#A86551">
                                    <rect id="Arm-" x="0" y="0" width="26.396724" height="99.3625068"></rect>
                                    <rect id="Arm" x="151.611953" y="0" width="26.396724" height="99.3625068"></rect>
                                </g>
                            </g>
                            <g id="Tie" transform="translate(81.000000, 177.000000)">
                                <g id="Top-Tie">
                                    <rect id="Rectangle-7" fill="#D9DADC" x="1" y="35" width="59" height="20"></rect>
                                    <path d="M19.7663465,0.888310238 L38.8831927,0.888310238 L38.8831927,0.888310238 C42.575611,0.888310238 45.5689075,3.88160668 45.5689075,7.57402497 L45.5689075,41.6908212 L45.568909,41.6908212 C45.568909,43.7940845 44.5791688,45.7747379 42.8971563,47.037493 C38.4395497,50.3839992 33.9154208,52.0572523 29.3247696,52.0572523 C24.8861556,52.0572523 20.3807887,50.3782027 15.8086691,47.0201036 L15.8086665,47.0201071 C14.0936118,45.7604453 13.0806318,43.7595878 13.0806318,41.6316403 L13.0806318,7.57402497 L13.0806318,7.57402497 C13.0806318,3.88160668 16.0739282,0.888310238 19.7663465,0.888310238 Z" id="neck" fill="#F6C4A9"></path>
                                    <path d="M27.4135808,55.8715818 L2.04913273,76.7009715 L2.04913273,76.7009715 C1.51409354,77.1403479 0.724173627,77.0627979 0.284797229,76.5277587 C0.100654179,76.3035233 -1.78488361e-14,76.0223528 -1.62092562e-14,75.7321973 L-7.98885625e-15,36.2653541 L-8.8817842e-15,36.2653541 C-8.96656997e-15,35.5730257 0.561243027,35.0117827 1.25357139,35.0117827 C1.51367441,35.0117827 1.7673367,35.0926905 1.97940371,35.2432931 L27.0352278,53.0370718 L27.2298291,53.1570162 L27.2298291,53.1570162 C28.0156568,53.6413681 28.2600511,54.6710521 27.7756992,55.4568797 C27.6787458,55.6141798 27.5563801,55.7543145 27.4135808,55.8715818 Z" id="Triangle" fill="#EDF0F5"></path>
                                    <path d="M59.4135808,55.8715818 L34.0491327,76.7009715 L34.0491327,76.7009715 C33.5140935,77.1403479 32.7241736,77.0627979 32.2847972,76.5277587 C32.1006542,76.3035233 32,76.0223528 32,75.7321973 L32,36.2653541 L32,36.2653541 C32,35.5730257 32.561243,35.0117827 33.2535714,35.0117827 C33.5136744,35.0117827 33.7673367,35.0926905 33.9794037,35.2432931 L59.0352278,53.0370718 L59.2298291,53.1570162 L59.2298291,53.1570162 C60.0156568,53.6413681 60.2600511,54.6710521 59.7756992,55.4568797 C59.6787458,55.6141798 59.5563801,55.7543145 59.4135808,55.8715818 Z" id="Triangle" fill="#EDF0F5" transform="translate(46.000000, 56.000000) scale(-1, 1) translate(-46.000000, -56.000000) "></path>
                                </g>
                            </g>
                            <g id="Head">
                                <path d="M111.001609,192.082954 C156.606173,192.082954 193.575976,163.759722 193.575976,107.069105 C193.575976,50.3784871 156.606173,4.4216612 111.001609,4.4216612 C65.3970448,4.4216612 28.4272412,50.3784871 28.4272412,107.069105 C28.4272412,163.759722 65.3970448,192.082954 111.001609,192.082954 Z" id="head" fill="#F6C4A9"></path>
                                <g id="Ears" transform="translate(0.000000, 82.581416)" fill="#F6C4A9">
                                    <ellipse id="ear" cx="19.6283332" cy="19.6021272" rx="19.6283332" ry="19.6021272"></ellipse>
                                    <ellipse id="ear" cx="203.728562" cy="20.2780626" rx="19.6283332" ry="19.6021272"></ellipse>
                                </g>
                                <g id="Cheeks" transform="translate(54.823965, 121.109735)" fill="#C76D6C">
                                    <ellipse id="Oval-5" cx="12.5215229" cy="12.5048053" rx="12.5215229" ry="12.5048053"></ellipse>
                                    <ellipse id="Oval-5" cx="108.632672" cy="13.8566761" rx="12.5215229" ry="12.5048053"></ellipse>
                                </g>
                                <g id="Nose" transform="translate(106.824545, 110.932931)" fill="#C76D6C">
                                    <rect id="Rectangle-4" x="0" y="0" width="12.1831034" height="24.3336751" rx="6.0915517"></rect>
                                </g>
                                <g id="Eyes" transform="translate(113.891264, 101.210336) scale(1, -1) translate(-113.891264, -101.210336) translate(70.391264, 96.710336)" stroke="#4A4A4A" stroke-width="10.8642864" stroke-linecap="square">
                                    <path d="M0,8.68436944 C2.54598254,2.89478981 5.91869604,2.24970361e-15 10.1181405,0 C14.317585,-1.92831738e-15 17.5522978,2.89478981 19.822279,8.68436944" id="Line"></path>
                                    <path d="M67.0070687,8.68436944 C69.5530512,2.89478981 72.9257647,2.24970361e-15 77.1252092,0 C81.3246536,-1.92831738e-15 84.5593665,2.89478981 86.8293477,8.68436944" id="Line-Copy"></path>
                                </g>
                                <g id="Hair" transform="translate(25.719885, 0.000000)" fill="#4A4A4A">
                                    <path d="M0,-7.10542736e-15 L172.593965,-7.10542736e-15 L172.593965,60.7874034 C172.593965,60.7874034 108.244434,69.6654493 68.9999093,69.6654493 C29.7553844,69.6654493 0,60.7874034 0,60.7874034 L0,-7.10542736e-15 Z" id="Combined-Shape"></path>
                                    <rect id="Rectangle-2" x="0" y="25.4751144" width="12.8599425" height="80.0881059" rx="6.42997123"></rect>
                                    <rect id="Rectangle-2" x="159.734022" y="25.4751144" width="12.8599425" height="80.0881059" rx="6.42997123"></rect>
                                </g>
                            </g>
                            <g id="Tie" transform="translate(78.413793, 225.439252)">
                                <polygon id="Rectangle-6" fill="#C13433" points="26.4689655 0.35046729 40.0791382 0.35046729 48.4103448 10.0804509 43.1862069 28.8972926 22.9862069 28.8972926 16.7172414 10.0804509"></polygon>
                                <polygon id="Path-2" fill="#D33333" points="22.9862069 28.7383178 43.1862069 28.7383178 65.4758621 156.308411 65.4758621 160.864486 36.5689655 192.757009 33.0862069 195.560748 29.9517241 192.757009 0 160.864486"></polygon>
                            </g>
                            <g id="Paper" transform="translate(21.000000, 171.000000)">
                                <mask id="mask-5" fill="white">
                                    <use xlink:href="#path-4"></use>
                                </mask>
                                <use id="Mask" fill="#FFFFFF" xlink:href="#path-4"></use>
                                <g id="Lines" mask="url(#mask-5)" stroke="#EFEFEF">
                                    <g transform="translate(1.000000, 16.000000)" id="Path-3">
                                        <path d="M0,1 L182.006181,1"></path>
                                        <path d="M0,11 L182.006181,11"></path>
                                        <path d="M0,21 L182.006181,21"></path>
                                        <path d="M0,31 L182.006181,31"></path>
                                        <path d="M0,41 L182.006181,41"></path>
                                        <path d="M0,51 L182.006181,51"></path>
                                        <path d="M0,61 L182.006181,61"></path>
                                        <path d="M0,71 L182.006181,71"></path>
                                        <path d="M0,81 L182.006181,81"></path>
                                        <path d="M0,91 L182.006181,91"></path>
                                        <path d="M0,101 L182.006181,101"></path>
                                        <path d="M0,111 L182.006181,111"></path>
                                        <path d="M0,121 L182.006181,121"></path>
                                        <path d="M0,131 L182.006181,131"></path>
                                    </g>
                                </g>
                                <g id="Right-Hand" mask="url(#mask-5)">
                                    <g transform="translate(196.000000, 87.000000) scale(-1, 1) translate(-196.000000, -87.000000) translate(151.000000, 52.000000)" id="Finger">
                                        <g transform="translate(6.300000, 0.000000)">
                                            <g transform="translate(0.630000, 0.000000)">
                                                <path d="M64.7433312,0.00649391967 C64.6636201,0.00218706943 64.5834897,1.10808261e-05 64.5030087,1.10808261e-05 L64.5030087,-8.88177573e-16 L0,-8.88177573e-16 L0,15.2564103 L64.6440069,15.2564103 C64.705155,15.2564103 64.766097,15.2551547 64.826803,15.2526635 C64.9145344,15.2551552 65.0026068,15.2564103 65.091,15.2564103 C69.7020254,15.2564103 73.44,11.8411465 73.44,7.62820513 C73.44,3.41526377 69.7020254,-3.64153144e-14 65.091,-3.64153144e-14 C64.9745381,-3.64153144e-14 64.8586331,0.00217869839 64.7433312,0.00649391967 Z" fill="#F6C4A9"></path>
                                                <ellipse id="Oval-3" fill="#FDD5BF" cx="65.091" cy="7.62820513" rx="6.072" ry="5.54778555"></ellipse>
                                            </g>
                                        </g>
                                        <g transform="translate(9.000000, 35.897436)">
                                            <g transform="translate(0.630000, 0.000000)">
                                                <path d="M64.7433312,0.00649391967 C64.6636201,0.00218706943 64.5834897,1.10808261e-05 64.5030087,1.10808261e-05 L64.5030087,-8.88177573e-16 L0,-8.88177573e-16 L0,15.2564103 L64.6440069,15.2564103 C64.705155,15.2564103 64.766097,15.2551547 64.826803,15.2526635 C64.9145344,15.2551552 65.0026068,15.2564103 65.091,15.2564103 C69.7020254,15.2564103 73.44,11.8411465 73.44,7.62820513 C73.44,3.41526377 69.7020254,-3.64153144e-14 65.091,-3.64153144e-14 C64.9745381,-3.64153144e-14 64.8586331,0.00217869839 64.7433312,0.00649391967 Z" fill="#F6C4A9"></path>
                                                <ellipse id="Oval-3" fill="#FDD5BF" cx="65.091" cy="7.62820513" rx="6.072" ry="5.54778555"></ellipse>
                                            </g>
                                        </g>
                                        <g transform="translate(25.200000, 18.846154)">
                                            <g transform="translate(0.546506, 0.000000)">
                                                <path d="M55.8762841,0.0247938189 C55.7215705,0.00838189468 55.5649089,-1.95934447e-06 55.406802,-1.95934447e-06 L55.406802,-6.03526063e-16 L0,-6.03526063e-16 L0,15.2564103 L55.5245462,15.2564103 C55.6649173,15.2564103 55.8041222,15.2498063 55.9418135,15.2368508 C56.1144335,15.2498164 56.2887266,15.2564103 56.4644819,15.2564103 C60.4644076,15.2564103 63.706988,11.8411465 63.706988,7.62820513 C63.706988,3.41526377 60.4644076,-6.03526063e-16 56.4644819,-6.03526063e-16 C56.2664593,-6.03526063e-16 56.0702928,0.00837047524 55.8762841,0.0247938189 Z" fill="#F6C4A9"></path>
                                                <ellipse id="Oval-3" fill="#FDD5BF" cx="56.4644819" cy="7.62820513" rx="5.26727711" ry="5.54778555"></ellipse>
                                            </g>
                                        </g>
                                        <g transform="translate(0.000000, 54.743590)">
                                            <g transform="translate(0.630000, 0.000000)">
                                                <path d="M64.7433312,0.00649391967 C64.6636201,0.00218706943 64.5834897,1.10808261e-05 64.5030087,1.10808261e-05 L64.5030087,-8.88177573e-16 L0,-8.88177573e-16 L0,15.2564103 L64.6440069,15.2564103 C64.705155,15.2564103 64.766097,15.2551547 64.826803,15.2526635 C64.9145344,15.2551552 65.0026068,15.2564103 65.091,15.2564103 C69.7020254,15.2564103 73.44,11.8411465 73.44,7.62820513 C73.44,3.41526377 69.7020254,-3.64153144e-14 65.091,-3.64153144e-14 C64.9745381,-3.64153144e-14 64.8586331,0.00217869839 64.7433312,0.00649391967 Z" fill="#F6C4A9"></path>
                                                <ellipse id="Oval-3" fill="#FDD5BF" cx="65.091" cy="7.62820513" rx="6.072" ry="5.54778555"></ellipse>
                                            </g>
                                        </g>
                                    </g>
                                </g>
                                <g id="Left-Hand" mask="url(#mask-5)">
                                    <g transform="translate(-60.000000, 52.000000)" id="Finger">
                                        <g transform="translate(7.230769, 0.000000)">
                                            <g transform="translate(0.632692, 0.000000)">
                                                <path d="M65.0289493,0.00617407262 C64.9511327,0.00207047342 64.872919,-2.27795347e-06 64.7943718,-2.27795347e-06 L64.7943718,-8.88177573e-16 L0,-8.88177573e-16 L0,15.278481 L64.9361644,15.278481 C64.9952657,15.278481 65.0541748,15.277308 65.1128649,15.27498 C65.1979861,15.2773085 65.2834261,15.278481 65.3691667,15.278481 C69.9998973,15.278481 73.7538462,11.8582765 73.7538462,7.63924051 C73.7538462,3.42020447 69.9998973,-3.64153144e-14 65.3691667,-3.64153144e-14 C65.2552157,-3.64153144e-14 65.1417956,0.00207104428 65.0289493,0.00617407262 Z" fill="#F6C4A9"></path>
                                                <ellipse id="Oval-3" fill="#FDD5BF" cx="65.3691667" cy="7.63924051" rx="6.09794872" ry="5.55581128"></ellipse>
                                            </g>
                                        </g>
                                        <g transform="translate(9.942308, 36.848101)">
                                            <g transform="translate(0.632692, 0.000000)">
                                                <path d="M65.0289493,0.00617407262 C64.9511327,0.00207047342 64.872919,-2.27795345e-06 64.7943718,-2.27795345e-06 L64.7943718,-8.88177573e-16 L0,-8.88177573e-16 L0,15.278481 L64.9361644,15.278481 C64.9952657,15.278481 65.0541748,15.277308 65.1128649,15.27498 C65.1979861,15.2773085 65.2834261,15.278481 65.3691667,15.278481 C69.9998973,15.278481 73.7538462,11.8582765 73.7538462,7.63924051 C73.7538462,3.42020447 69.9998973,-3.64153144e-14 65.3691667,-3.64153144e-14 C65.2552157,-3.64153144e-14 65.1417956,0.00207104428 65.0289493,0.00617407262 Z" fill="#F6C4A9"></path>
                                                <ellipse id="Oval-3" fill="#FDD5BF" cx="65.3691667" cy="7.63924051" rx="6.09794872" ry="5.55581128"></ellipse>
                                            </g>
                                        </g>
                                        <g transform="translate(26.211538, 19.772152)">
                                            <g transform="translate(0.571710, 0.000000)">
                                                <path d="M58.5491584,0.0176669688 C58.4182123,0.00595891236 58.2859546,-4.67113888e-07 58.1526896,-4.67113888e-07 L58.1526896,1.46156382e-16 L0,1.46156382e-16 L0,15.278481 L58.2775622,15.278481 C58.3925432,15.278481 58.5067573,15.2740474 58.6200115,15.2653174 C58.7684091,15.2740524 58.9179537,15.278481 59.0685241,15.278481 C63.2529192,15.278481 66.6450417,11.8582765 66.6450417,7.63924051 C66.6450417,3.42020447 63.2529192,1.46156382e-16 59.0685241,1.46156382e-16 C58.8939604,1.46156382e-16 58.7207756,0.00595243074 58.5491584,0.0176669688 Z" fill="#F6C4A9"></path>
                                                <ellipse id="Oval-3" fill="#FDD5BF" cx="59.0685241" cy="7.63924051" rx="5.51019462" ry="5.55581128"></ellipse>
                                            </g>
                                        </g>
                                        <g transform="translate(0.000000, 55.721519)">
                                            <g transform="translate(0.632692, 0.000000)">
                                                <path d="M65.0289493,0.00617407262 C64.9511327,0.00207047342 64.872919,-2.27795345e-06 64.7943718,-2.27795345e-06 L64.7943718,-8.88177573e-16 L0,-8.88177573e-16 L0,15.278481 L64.9361644,15.278481 C64.9952657,15.278481 65.0541748,15.277308 65.1128649,15.27498 C65.1979861,15.2773085 65.2834261,15.278481 65.3691667,15.278481 C69.9998973,15.278481 73.7538462,11.8582765 73.7538462,7.63924051 C73.7538462,3.42020447 69.9998973,-3.64153144e-14 65.3691667,-3.64153144e-14 C65.2552157,-3.64153144e-14 65.1417956,0.00207104428 65.0289493,0.00617407262 Z" fill="#F6C4A9"></path>
                                                <ellipse id="Oval-3" fill="#FDD5BF" cx="65.3691667" cy="7.63924051" rx="6.09794872" ry="5.55581128"></ellipse>
                                            </g>
                                        </g>
                                    </g>
                                </g>
                            </g>
                        </g>
                    </g>
                </g>
            </g>
        </g>
    </g>
</svg>